<svg xmlns="http://www.w3.org/2000/svg" xmlns:xlink="http://www.w3.org/1999/xlink" width="500" zoomAndPan="magnify" viewBox="0 0 375 374.999991" height="500" preserveAspectRatio="xMidYMid meet" version="1.0"><defs><clipPath id="f1e19c8e21"><path d="M 3.890625 7.777344 L 371.390625 7.777344 L 371.390625 375 L 3.890625 375 Z M 3.890625 7.777344 " clip-rule="nonzero"/></clipPath><clipPath id="9a5887efa5"><path d="M 3.890625 7.777344 L 371.390625 7.777344 L 371.390625 375 L 3.890625 375 Z M 3.890625 7.777344 " clip-rule="nonzero"/></clipPath><clipPath id="0d819c4d7a"><path d="M 38.304688 72.359375 L 281 72.359375 L 281 286.109375 L 38.304688 286.109375 Z M 38.304688 72.359375 " clip-rule="nonzero"/></clipPath></defs><g clip-path="url(#f1e19c8e21)"><path fill="#4f46e5" d="M 371.390625 191.527344 C 371.390625 194.535156 371.316406 197.542969 371.167969 200.546875 C 371.019531 203.546875 370.800781 206.546875 370.503906 209.539062 C 370.210938 212.53125 369.84375 215.515625 369.402344 218.492188 C 368.960938 221.464844 368.445312 224.425781 367.859375 227.375 C 367.273438 230.324219 366.613281 233.257812 365.882812 236.175781 C 365.152344 239.09375 364.351562 241.992188 363.476562 244.867188 C 362.605469 247.746094 361.660156 250.601562 360.648438 253.433594 C 359.636719 256.265625 358.554688 259.070312 357.402344 261.847656 C 356.25 264.625 355.03125 267.375 353.746094 270.09375 C 352.460938 272.808594 351.109375 275.496094 349.691406 278.148438 C 348.273438 280.800781 346.792969 283.414062 345.246094 285.996094 C 343.699219 288.574219 342.09375 291.113281 340.421875 293.613281 C 338.75 296.113281 337.019531 298.574219 335.230469 300.988281 C 333.4375 303.402344 331.585938 305.773438 329.679688 308.097656 C 327.773438 310.421875 325.808594 312.699219 323.789062 314.925781 C 321.769531 317.15625 319.695312 319.332031 317.570312 321.460938 C 315.445312 323.585938 313.265625 325.660156 311.039062 327.679688 C 308.808594 329.699219 306.535156 331.660156 304.210938 333.570312 C 301.882812 335.476562 299.515625 337.328125 297.097656 339.117188 C 294.683594 340.910156 292.226562 342.640625 289.726562 344.3125 C 287.226562 345.980469 284.683594 347.589844 282.105469 349.136719 C 279.527344 350.683594 276.910156 352.164062 274.257812 353.582031 C 271.605469 355 268.921875 356.351562 266.203125 357.636719 C 263.484375 358.921875 260.734375 360.140625 257.957031 361.292969 C 255.179688 362.441406 252.375 363.523438 249.542969 364.539062 C 246.710938 365.550781 243.855469 366.492188 240.980469 367.367188 C 238.101562 368.238281 235.203125 369.042969 232.285156 369.773438 C 229.371094 370.503906 226.4375 371.160156 223.488281 371.75 C 220.539062 372.335938 217.574219 372.847656 214.601562 373.289062 C 211.625 373.730469 208.644531 374.097656 205.648438 374.394531 C 202.65625 374.6875 199.660156 374.910156 196.65625 375.058594 C 193.652344 375.203125 190.648438 375.277344 187.640625 375.277344 C 184.632812 375.277344 181.625 375.203125 178.625 375.058594 C 175.621094 374.910156 172.621094 374.6875 169.628906 374.394531 C 166.636719 374.097656 163.652344 373.730469 160.675781 373.289062 C 157.703125 372.847656 154.742188 372.335938 151.792969 371.75 C 148.84375 371.160156 145.910156 370.503906 142.992188 369.773438 C 140.074219 369.042969 137.175781 368.238281 134.300781 367.367188 C 131.421875 366.492188 128.566406 365.550781 125.734375 364.539062 C 122.90625 363.523438 120.101562 362.441406 117.320312 361.292969 C 114.542969 360.140625 111.792969 358.921875 109.074219 357.636719 C 106.359375 356.351562 103.671875 355 101.019531 353.582031 C 98.367188 352.164062 95.753906 350.683594 93.171875 349.136719 C 90.59375 347.589844 88.054688 345.980469 85.554688 344.3125 C 83.054688 342.640625 80.59375 340.910156 78.179688 339.117188 C 75.765625 337.328125 73.394531 335.476562 71.070312 333.570312 C 68.746094 331.660156 66.46875 329.699219 64.242188 327.679688 C 62.011719 325.660156 59.835938 323.585938 57.707031 321.460938 C 55.582031 319.332031 53.507812 317.15625 51.488281 314.925781 C 49.46875 312.699219 47.507812 310.421875 45.597656 308.097656 C 43.691406 305.773438 41.839844 303.402344 40.050781 300.988281 C 38.257812 298.574219 36.527344 296.113281 34.855469 293.613281 C 33.1875 291.113281 31.578125 288.574219 30.03125 285.996094 C 28.484375 283.414062 27.003906 280.800781 25.585938 278.148438 C 24.167969 275.496094 22.816406 272.808594 21.53125 270.09375 C 20.246094 267.375 19.027344 264.625 17.875 261.847656 C 16.726562 259.070312 15.644531 256.265625 14.628906 253.433594 C 13.617188 250.601562 12.675781 247.746094 11.800781 244.867188 C 10.929688 241.992188 10.125 239.09375 9.394531 236.175781 C 8.664062 233.257812 8.007812 230.324219 7.421875 227.375 C 6.832031 224.425781 6.320312 221.464844 5.878906 218.492188 C 5.4375 215.515625 5.070312 212.53125 4.773438 209.539062 C 4.480469 206.546875 4.257812 203.546875 4.109375 200.546875 C 3.964844 197.542969 3.890625 194.535156 3.890625 191.527344 C 3.890625 188.523438 3.964844 185.515625 4.109375 182.511719 C 4.257812 179.507812 4.480469 176.511719 4.773438 173.519531 C 5.070312 170.527344 5.4375 167.542969 5.878906 164.566406 C 6.320312 161.59375 6.832031 158.628906 7.421875 155.679688 C 8.007812 152.730469 8.664062 149.796875 9.394531 146.882812 C 10.125 143.964844 10.929688 141.066406 11.800781 138.1875 C 12.675781 135.3125 13.617188 132.457031 14.628906 129.625 C 15.644531 126.792969 16.726562 123.988281 17.875 121.210938 C 19.027344 118.433594 20.246094 115.683594 21.53125 112.964844 C 22.816406 110.246094 24.167969 107.5625 25.585938 104.910156 C 27.003906 102.257812 28.484375 99.640625 30.03125 97.0625 C 31.578125 94.484375 33.1875 91.941406 34.855469 89.441406 C 36.527344 86.941406 38.257812 84.484375 40.050781 82.070312 C 41.839844 79.652344 43.691406 77.285156 45.597656 74.960938 C 47.507812 72.632812 49.46875 70.359375 51.488281 68.128906 C 53.507812 65.902344 55.582031 63.722656 57.707031 61.597656 C 59.835938 59.472656 62.011719 57.398438 64.242188 55.378906 C 66.46875 53.359375 68.746094 51.394531 71.070312 49.488281 C 73.394531 47.582031 75.765625 45.730469 78.179688 43.941406 C 80.59375 42.148438 83.054688 40.417969 85.554688 38.746094 C 88.054688 37.074219 90.59375 35.46875 93.171875 33.921875 C 95.753906 32.375 98.367188 30.894531 101.019531 29.476562 C 103.671875 28.058594 106.359375 26.707031 109.074219 25.421875 C 111.792969 24.136719 114.542969 22.917969 117.320312 21.765625 C 120.101562 20.613281 122.90625 19.535156 125.734375 18.519531 C 128.566406 17.507812 131.421875 16.5625 134.300781 15.691406 C 137.175781 14.816406 140.074219 14.015625 142.992188 13.285156 C 145.910156 12.554688 148.84375 11.894531 151.792969 11.308594 C 154.742188 10.722656 157.703125 10.207031 160.675781 9.769531 C 163.652344 9.328125 166.636719 8.957031 169.628906 8.664062 C 172.621094 8.367188 175.621094 8.148438 178.625 8 C 181.625 7.851562 184.632812 7.777344 187.640625 7.777344 C 190.648438 7.777344 193.652344 7.851562 196.65625 8 C 199.660156 8.148438 202.65625 8.367188 205.648438 8.664062 C 208.644531 8.957031 211.625 9.328125 214.601562 9.769531 C 217.574219 10.207031 220.539062 10.722656 223.488281 11.308594 C 226.4375 11.894531 229.371094 12.554688 232.285156 13.285156 C 235.203125 14.015625 238.101562 14.816406 240.980469 15.691406 C 243.855469 16.5625 246.710938 17.507812 249.542969 18.519531 C 252.375 19.535156 255.179688 20.613281 257.957031 21.765625 C 260.734375 22.917969 263.484375 24.136719 266.203125 25.421875 C 268.921875 26.707031 271.605469 28.058594 274.257812 29.476562 C 276.910156 30.894531 279.527344 32.375 282.105469 33.921875 C 284.683594 35.46875 287.226562 37.074219 289.726562 38.746094 C 292.226562 40.417969 294.683594 42.148438 297.097656 43.941406 C 299.515625 45.730469 301.882812 47.582031 304.210938 49.488281 C 306.535156 51.394531 308.808594 53.359375 311.039062 55.378906 C 313.265625 57.398438 315.445312 59.472656 317.570312 61.597656 C 319.695312 63.722656 321.769531 65.902344 323.789062 68.128906 C 325.808594 70.359375 327.773438 72.632812 329.679688 74.960938 C 331.585938 77.285156 333.4375 79.652344 335.230469 82.070312 C 337.019531 84.484375 338.75 86.941406 340.421875 89.441406 C 342.09375 91.941406 343.699219 94.484375 345.246094 97.0625 C 346.792969 99.640625 348.273438 102.257812 349.691406 104.910156 C 351.109375 107.5625 352.460938 110.246094 353.746094 112.964844 C 355.03125 115.683594 356.25 118.433594 357.402344 121.210938 C 358.554688 123.988281 359.636719 126.792969 360.648438 129.625 C 361.660156 132.457031 362.605469 135.3125 363.476562 138.1875 C 364.351562 141.066406 365.152344 143.964844 365.882812 146.882812 C 366.613281 149.796875 367.273438 152.730469 367.859375 155.679688 C 368.445312 158.628906 368.960938 161.59375 369.402344 164.566406 C 369.839844 167.542969 370.210938 170.527344 370.503906 173.519531 C 370.800781 176.511719 371.019531 179.507812 371.167969 182.511719 C 371.316406 185.515625 371.390625 188.523438 371.390625 191.527344 Z M 371.390625 191.527344 " fill-opacity="1" fill-rule="nonzero"/></g><path fill="#ffffff" d="M 270.328125 191.527344 C 270.328125 192.882812 270.292969 194.234375 270.226562 195.585938 C 270.160156 196.9375 270.0625 198.285156 269.929688 199.632812 C 269.796875 200.980469 269.628906 202.324219 269.433594 203.660156 C 269.234375 205 269.003906 206.332031 268.738281 207.660156 C 268.472656 208.988281 268.175781 210.308594 267.847656 211.621094 C 267.519531 212.933594 267.160156 214.238281 266.765625 215.53125 C 266.375 216.828125 265.949219 218.109375 265.492188 219.386719 C 265.039062 220.660156 264.550781 221.921875 264.03125 223.171875 C 263.515625 224.421875 262.964844 225.660156 262.386719 226.882812 C 261.808594 228.105469 261.203125 229.3125 260.5625 230.507812 C 259.925781 231.699219 259.257812 232.878906 258.5625 234.039062 C 257.867188 235.199219 257.144531 236.34375 256.390625 237.46875 C 255.640625 238.59375 254.859375 239.699219 254.054688 240.785156 C 253.25 241.871094 252.417969 242.9375 251.558594 243.984375 C 250.699219 245.03125 249.816406 246.054688 248.90625 247.058594 C 247.996094 248.0625 247.066406 249.039062 246.109375 249.996094 C 245.152344 250.953125 244.171875 251.886719 243.167969 252.796875 C 242.167969 253.703125 241.140625 254.589844 240.097656 255.445312 C 239.050781 256.304688 237.984375 257.136719 236.894531 257.945312 C 235.808594 258.75 234.703125 259.527344 233.578125 260.28125 C 232.453125 261.03125 231.308594 261.757812 230.148438 262.453125 C 228.988281 263.148438 227.8125 263.816406 226.617188 264.453125 C 225.425781 265.089844 224.214844 265.699219 222.992188 266.277344 C 221.769531 266.855469 220.53125 267.402344 219.28125 267.921875 C 218.03125 268.441406 216.769531 268.925781 215.496094 269.382812 C 214.222656 269.839844 212.9375 270.261719 211.640625 270.65625 C 210.347656 271.046875 209.042969 271.410156 207.730469 271.738281 C 206.417969 272.066406 205.097656 272.363281 203.769531 272.628906 C 202.445312 272.890625 201.109375 273.121094 199.773438 273.320312 C 198.433594 273.519531 197.089844 273.683594 195.746094 273.816406 C 194.398438 273.949219 193.046875 274.050781 191.695312 274.117188 C 190.34375 274.183594 188.992188 274.214844 187.640625 274.214844 C 186.285156 274.214844 184.933594 274.183594 183.582031 274.117188 C 182.230469 274.050781 180.882812 273.949219 179.535156 273.816406 C 178.1875 273.683594 176.84375 273.519531 175.507812 273.320312 C 174.167969 273.121094 172.835938 272.890625 171.507812 272.628906 C 170.179688 272.363281 168.859375 272.066406 167.546875 271.738281 C 166.234375 271.410156 164.929688 271.046875 163.636719 270.65625 C 162.339844 270.261719 161.058594 269.839844 159.78125 269.382812 C 158.507812 268.925781 157.246094 268.441406 155.996094 267.921875 C 154.746094 267.402344 153.507812 266.855469 152.285156 266.277344 C 151.0625 265.699219 149.855469 265.089844 148.660156 264.453125 C 147.46875 263.816406 146.289062 263.148438 145.128906 262.453125 C 143.96875 261.757812 142.824219 261.03125 141.699219 260.28125 C 140.574219 259.527344 139.46875 258.75 138.382812 257.945312 C 137.296875 257.136719 136.230469 256.304688 135.183594 255.445312 C 134.136719 254.589844 133.113281 253.703125 132.109375 252.796875 C 131.105469 251.886719 130.128906 250.953125 129.171875 249.996094 C 128.214844 249.039062 127.28125 248.0625 126.371094 247.058594 C 125.464844 246.054688 124.578125 245.03125 123.722656 243.984375 C 122.863281 242.9375 122.03125 241.871094 121.222656 240.785156 C 120.417969 239.699219 119.640625 238.59375 118.886719 237.46875 C 118.136719 236.34375 117.410156 235.199219 116.714844 234.039062 C 116.019531 232.878906 115.351562 231.699219 114.714844 230.507812 C 114.078125 229.3125 113.46875 228.105469 112.890625 226.882812 C 112.3125 225.660156 111.765625 224.421875 111.246094 223.171875 C 110.726562 221.921875 110.242188 220.660156 109.785156 219.386719 C 109.328125 218.109375 108.90625 216.828125 108.511719 215.53125 C 108.121094 214.238281 107.757812 212.933594 107.429688 211.621094 C 107.101562 210.308594 106.804688 208.988281 106.539062 207.660156 C 106.277344 206.332031 106.046875 205 105.847656 203.660156 C 105.648438 202.324219 105.484375 200.980469 105.351562 199.632812 C 105.21875 198.285156 105.117188 196.9375 105.050781 195.585938 C 104.984375 194.234375 104.953125 192.882812 104.953125 191.527344 C 104.953125 190.175781 104.984375 188.824219 105.050781 187.472656 C 105.117188 186.121094 105.21875 184.769531 105.351562 183.425781 C 105.484375 182.078125 105.648438 180.734375 105.847656 179.394531 C 106.046875 178.058594 106.277344 176.722656 106.539062 175.398438 C 106.804688 174.070312 107.101562 172.75 107.429688 171.4375 C 107.757812 170.125 108.121094 168.820312 108.511719 167.527344 C 108.90625 166.230469 109.328125 164.945312 109.785156 163.671875 C 110.242188 162.398438 110.726562 161.136719 111.246094 159.886719 C 111.765625 158.636719 112.3125 157.398438 112.890625 156.175781 C 113.46875 154.953125 114.078125 153.742188 114.714844 152.550781 C 115.351562 151.355469 116.019531 150.179688 116.714844 149.019531 C 117.410156 147.859375 118.136719 146.714844 118.886719 145.589844 C 119.640625 144.464844 120.417969 143.359375 121.222656 142.273438 C 122.03125 141.183594 122.863281 140.117188 123.722656 139.074219 C 124.578125 138.027344 125.464844 137.003906 126.371094 136 C 127.28125 134.996094 128.214844 134.015625 129.171875 133.058594 C 130.128906 132.101562 131.105469 131.171875 132.109375 130.261719 C 133.113281 129.351562 134.136719 128.46875 135.183594 127.609375 C 136.230469 126.753906 137.296875 125.917969 138.382812 125.113281 C 139.46875 124.308594 140.574219 123.527344 141.699219 122.777344 C 142.824219 122.023438 143.96875 121.300781 145.128906 120.605469 C 146.289062 119.910156 147.46875 119.242188 148.660156 118.605469 C 149.855469 117.96875 151.0625 117.359375 152.285156 116.78125 C 153.507812 116.203125 154.746094 115.652344 155.996094 115.136719 C 157.246094 114.617188 158.507812 114.128906 159.78125 113.675781 C 161.058594 113.21875 162.339844 112.792969 163.636719 112.402344 C 164.929688 112.007812 166.234375 111.648438 167.546875 111.320312 C 168.859375 110.992188 170.179688 110.695312 171.507812 110.429688 C 172.835938 110.167969 174.167969 109.933594 175.507812 109.734375 C 176.84375 109.539062 178.1875 109.371094 179.535156 109.238281 C 180.882812 109.105469 182.230469 109.007812 183.582031 108.941406 C 184.933594 108.875 186.285156 108.839844 187.640625 108.839844 C 188.992188 108.839844 190.34375 108.875 191.695312 108.941406 C 193.046875 109.007812 194.398438 109.105469 195.746094 109.238281 C 197.089844 109.371094 198.433594 109.539062 199.773438 109.734375 C 201.109375 109.933594 202.445312 110.167969 203.769531 110.429688 C 205.097656 110.695312 206.417969 110.992188 207.730469 111.320312 C 209.042969 111.648438 210.347656 112.007812 211.640625 112.402344 C 212.9375 112.792969 214.222656 113.21875 215.496094 113.675781 C 216.769531 114.128906 218.03125 114.617188 219.28125 115.136719 C 220.53125 115.652344 221.769531 116.203125 222.992188 116.78125 C 224.214844 117.359375 225.425781 117.96875 226.617188 118.605469 C 227.8125 119.242188 228.988281 119.910156 230.148438 120.605469 C 231.308594 121.300781 232.453125 122.023438 233.578125 122.777344 C 234.703125 123.527344 235.808594 124.308594 236.894531 125.113281 C 237.984375 125.917969 239.050781 126.753906 240.097656 127.609375 C 241.140625 128.46875 242.167969 129.351562 243.167969 130.261719 C 244.171875 131.171875 245.152344 132.101562 246.109375 133.058594 C 247.066406 134.015625 247.996094 134.996094 248.90625 136 C 249.816406 137.003906 250.699219 138.027344 251.558594 139.074219 C 252.417969 140.117188 253.25 141.183594 254.054688 142.273438 C 254.859375 143.359375 255.640625 144.464844 256.390625 145.589844 C 257.144531 146.714844 257.867188 147.859375 258.5625 149.019531 C 259.257812 150.179688 259.925781 151.355469 260.5625 152.550781 C 261.203125 153.742188 261.808594 154.953125 262.386719 156.175781 C 262.964844 157.398438 263.515625 158.636719 264.03125 159.886719 C 264.550781 161.136719 265.039062 162.398438 265.492188 163.671875 C 265.949219 164.945312 266.375 166.230469 266.765625 167.527344 C 267.160156 168.820312 267.519531 170.125 267.847656 171.4375 C 268.175781 172.75 268.472656 174.070312 268.738281 175.398438 C 269.003906 176.722656 269.234375 178.058594 269.433594 179.394531 C 269.628906 180.734375 269.796875 182.078125 269.929688 183.425781 C 270.0625 184.769531 270.160156 186.121094 270.226562 187.472656 C 270.292969 188.824219 270.328125 190.175781 270.328125 191.527344 Z M 270.328125 191.527344 " fill-opacity="1" fill-rule="nonzero"/><g clip-path="url(#9a5887efa5)"><path stroke-linecap="butt" transform="matrix(1.8375, 0, 0, 1.8375, 95.764421, 99.653842)" fill="none" stroke-linejoin="miter" d="M 95.000661 49.999188 C 95.000661 50.736858 94.981529 51.472402 94.945389 52.207946 C 94.90925 52.943491 94.856103 53.676909 94.783825 54.410328 C 94.711546 55.143746 94.620134 55.875038 94.513841 56.602079 C 94.405423 57.331246 94.279998 58.056161 94.13544 58.77895 C 93.990882 59.501739 93.829318 60.220277 93.650746 60.934563 C 93.472175 61.648848 93.276597 62.358882 93.061886 63.062539 C 92.849301 63.768321 92.617583 64.4656 92.368858 65.160753 C 92.12226 65.853781 91.856528 66.54043 91.57379 67.220703 C 91.293178 67.900975 90.993433 68.574869 90.678807 69.24026 C 90.364181 69.905652 90.034675 70.562539 89.686035 71.21305 C 89.339521 71.861434 88.976001 72.503441 88.5976 73.134819 C 88.219198 73.766196 87.825916 74.38907 87.415627 75.001315 C 87.007463 75.61356 86.582293 76.215176 86.144368 76.806162 C 85.706443 77.397149 85.253637 77.977506 84.78595 78.547234 C 84.318263 79.116962 83.83782 79.673935 83.342497 80.220278 C 82.847174 80.766622 82.341222 81.298084 81.820388 81.818918 C 81.299555 82.339751 80.765966 82.847829 80.219623 83.343153 C 79.675405 83.83635 79.116306 84.318918 78.548704 84.784479 C 77.978976 85.252166 77.398619 85.704972 76.805507 86.145023 C 76.214521 86.582949 75.612905 87.005993 75.00066 87.416282 C 74.388415 87.824445 73.765541 88.219854 73.134163 88.598255 C 72.502786 88.976656 71.862905 89.340177 71.212394 89.68669 C 70.56401 90.033204 69.904996 90.364837 69.239605 90.679463 C 68.574214 90.994088 67.900319 91.291707 67.220047 91.574446 C 66.539775 91.857184 65.853125 92.120789 65.160098 92.369514 C 64.467071 92.618238 63.767666 92.84783 63.061884 93.062541 C 62.358227 93.275126 61.648193 93.47283 60.933907 93.651402 C 60.219622 93.829973 59.501084 93.991538 58.778295 94.136095 C 58.057632 94.278527 57.330591 94.403953 56.60355 94.512371 C 55.874383 94.620789 55.143091 94.710075 54.411798 94.782354 C 53.67838 94.854633 52.942835 94.909905 52.207291 94.946044 C 51.471747 94.982184 50.736203 94.999191 50.000658 94.999191 C 49.262988 94.999191 48.527444 94.982184 47.7919 94.946044 C 47.056355 94.909905 46.322937 94.854633 45.589519 94.782354 C 44.8561 94.710075 44.124808 94.620789 43.397767 94.512371 C 42.6686 94.403953 41.943685 94.278527 41.220896 94.136095 C 40.498107 93.991538 39.779569 93.829973 39.065283 93.651402 C 38.350998 93.47283 37.640964 93.275126 36.937307 93.062541 C 36.231525 92.84783 35.534246 92.618238 34.839093 92.369514 C 34.146065 92.120789 33.459416 91.857184 32.779144 91.574446 C 32.098871 91.291707 31.424977 90.994088 30.759586 90.679463 C 30.094194 90.364837 29.437307 90.033204 28.786796 89.68669 C 28.138412 89.340177 27.496405 88.976656 26.865028 88.598255 C 26.23365 88.219854 25.610776 87.824445 24.998531 87.416282 C 24.386286 87.005993 23.78467 86.582949 23.193684 86.145023 C 22.602697 85.704972 22.02234 85.252166 21.452612 84.784479 C 20.882884 84.318918 20.325911 83.83635 19.779568 83.343153 C 19.233224 82.847829 18.701762 82.339751 18.180928 81.818918 C 17.660095 81.298084 17.152017 80.766622 16.656694 80.220278 C 16.163496 79.673935 15.680928 79.116962 15.215367 78.547234 C 14.74768 77.977506 14.294874 77.397149 13.854823 76.806162 C 13.416897 76.215176 12.993853 75.61356 12.583564 75.001315 C 12.175401 74.38907 11.779993 73.766196 11.401591 73.134819 C 11.02319 72.503441 10.659669 71.861434 10.313156 71.21305 C 9.966642 70.562539 9.635009 69.905652 9.320384 69.24026 C 9.005758 68.574869 8.708139 67.900975 8.4254 67.220703 C 8.142662 66.54043 7.879057 65.853781 7.630332 65.160753 C 7.381608 64.4656 7.152016 63.768321 6.937305 63.062539 C 6.72472 62.358882 6.527016 61.648848 6.348445 60.934563 C 6.169873 60.220277 6.008308 59.501739 5.863751 58.77895 C 5.721319 58.056161 5.595893 57.331246 5.487475 56.602079 C 5.379057 55.875038 5.289771 55.143746 5.217492 54.410328 C 5.145213 53.676909 5.089941 52.943491 5.053802 52.207946 C 5.017662 51.472402 5.000655 50.736858 5.000655 49.999188 C 5.000655 49.263644 5.017662 48.528099 5.053802 47.792555 C 5.089941 47.057011 5.145213 46.321466 5.217492 45.590174 C 5.289771 44.856755 5.379057 44.125463 5.487475 43.396296 C 5.595893 42.669255 5.721319 41.942214 5.863751 41.221551 C 6.008308 40.498762 6.169873 39.780225 6.348445 39.065939 C 6.527016 38.351653 6.72472 37.641619 6.937305 36.937962 C 7.152016 36.23218 7.381608 35.532775 7.630332 34.839748 C 7.879057 34.146721 8.142662 33.460071 8.4254 32.779799 C 8.708139 32.099527 9.005758 31.425632 9.320384 30.760241 C 9.635009 30.09485 9.966642 29.435836 10.313156 28.787452 C 10.659669 28.136941 11.02319 27.49706 11.401591 26.865683 C 11.779993 26.234305 12.175401 25.611431 12.583564 24.999186 C 12.993853 24.386941 13.416897 23.785326 13.854823 23.194339 C 14.294874 22.601227 14.74768 22.02087 15.215367 21.453268 C 15.680928 20.88354 16.163496 20.326567 16.656694 19.780223 C 17.152017 19.23388 17.660095 18.700291 18.180928 18.179458 C 18.701762 17.658624 19.233224 17.152672 19.779568 16.657349 C 20.325911 16.162026 20.882884 15.681583 21.452612 15.213896 C 22.02234 14.748335 22.602697 14.293403 23.193684 13.855478 C 23.78467 13.417553 24.386286 12.992383 24.998531 12.584219 C 25.610776 12.17393 26.23365 11.780648 26.865028 11.402246 C 27.496405 11.023845 28.138412 10.660325 28.786796 10.313811 C 29.437307 9.967297 30.094194 9.635665 30.759586 9.321039 C 31.424977 9.006413 32.098871 8.706668 32.779144 8.426056 C 33.459416 8.143318 34.146065 7.877586 34.839093 7.630988 C 35.534246 7.382263 36.231525 7.150546 36.937307 6.93796 C 37.640964 6.72325 38.350998 6.527671 39.065283 6.3491 C 39.779569 6.170528 40.498107 6.008964 41.220896 5.864406 C 41.943685 5.721974 42.6686 5.594423 43.397767 5.486005 C 44.124808 5.379712 44.8561 5.2883 45.589519 5.216022 C 46.322937 5.143743 47.056355 5.090596 47.7919 5.054457 C 48.527444 5.018317 49.262988 4.999185 50.000658 4.999185 C 50.736203 4.999185 51.471747 5.018317 52.207291 5.054457 C 52.942835 5.090596 53.67838 5.143743 54.411798 5.216022 C 55.143091 5.2883 55.874383 5.379712 56.60355 5.486005 C 57.330591 5.594423 58.057632 5.721974 58.778295 5.864406 C 59.501084 6.008964 60.219622 6.170528 60.933907 6.3491 C 61.648193 6.527671 62.358227 6.72325 63.061884 6.93796 C 63.767666 7.150546 64.467071 7.382263 65.160098 7.630988 C 65.853125 7.877586 66.539775 8.143318 67.220047 8.426056 C 67.900319 8.706668 68.574214 9.006413 69.239605 9.321039 C 69.904996 9.635665 70.56401 9.967297 71.212394 10.313811 C 71.862905 10.660325 72.502786 11.023845 73.134163 11.402246 C 73.765541 11.780648 74.388415 12.17393 75.00066 12.584219 C 75.612905 12.992383 76.214521 13.417553 76.805507 13.855478 C 77.398619 14.293403 77.978976 14.748335 78.548704 15.213896 C 79.116306 15.681583 79.675405 16.162026 80.219623 16.657349 C 80.765966 17.152672 81.299555 17.658624 81.820388 18.179458 C 82.341222 18.700291 82.847174 19.23388 83.342497 19.780223 C 83.83782 20.326567 84.318263 20.88354 84.78595 21.453268 C 85.253637 22.02087 85.706443 22.601227 86.144368 23.194339 C 86.582293 23.785326 87.007463 24.386941 87.415627 24.999186 C 87.825916 25.611431 88.219198 26.234305 88.5976 26.865683 C 88.976001 27.49706 89.339521 28.136941 89.686035 28.787452 C 90.034675 29.435836 90.364181 30.09485 90.678807 30.760241 C 90.993433 31.425632 91.293178 32.099527 91.57379 32.779799 C 91.856528 33.460071 92.12226 34.146721 92.368858 34.839748 C 92.617583 35.532775 92.849301 36.23218 93.061886 36.937962 C 93.276597 37.641619 93.472175 38.351653 93.650746 39.065939 C 93.829318 39.780225 93.990882 40.498762 94.13544 41.221551 C 94.279998 41.942214 94.405423 42.669255 94.513841 43.396296 C 94.620134 44.125463 94.711546 44.856755 94.783825 45.590174 C 94.856103 46.321466 94.90925 47.057011 94.945389 47.792555 C 94.981529 48.528099 95.000661 49.263644 95.000661 49.999188 Z M 95.000661 49.999188 " stroke="#ffffff" stroke-width="10" stroke-opacity="1" stroke-miterlimit="4"/></g><path fill="#ffffff" d="M 187.640625 145.589844 C 187.941406 145.589844 188.238281 145.621094 188.535156 145.679688 C 188.832031 145.738281 189.117188 145.824219 189.398438 145.941406 C 189.675781 146.054688 189.941406 146.199219 190.191406 146.367188 C 190.441406 146.53125 190.675781 146.722656 190.886719 146.9375 C 191.101562 147.148438 191.292969 147.382812 191.457031 147.632812 C 191.625 147.882812 191.769531 148.148438 191.882812 148.425781 C 192 148.707031 192.085938 148.992188 192.144531 149.289062 C 192.203125 149.585938 192.234375 149.882812 192.234375 150.183594 L 192.234375 196.121094 C 192.234375 196.425781 192.203125 196.722656 192.144531 197.019531 C 192.085938 197.316406 192 197.601562 191.882812 197.878906 C 191.769531 198.160156 191.625 198.425781 191.457031 198.675781 C 191.292969 198.925781 191.101562 199.15625 190.886719 199.371094 C 190.675781 199.585938 190.441406 199.773438 190.191406 199.941406 C 189.941406 200.109375 189.675781 200.25 189.398438 200.367188 C 189.117188 200.480469 188.832031 200.570312 188.535156 200.628906 C 188.238281 200.6875 187.941406 200.714844 187.640625 200.714844 C 187.335938 200.714844 187.039062 200.6875 186.742188 200.628906 C 186.449219 200.570312 186.160156 200.480469 185.882812 200.367188 C 185.601562 200.25 185.339844 200.109375 185.085938 199.941406 C 184.835938 199.773438 184.605469 199.585938 184.390625 199.371094 C 184.179688 199.15625 183.988281 198.925781 183.820312 198.675781 C 183.652344 198.425781 183.511719 198.160156 183.394531 197.878906 C 183.28125 197.601562 183.191406 197.316406 183.132812 197.019531 C 183.074219 196.722656 183.046875 196.425781 183.046875 196.121094 L 183.046875 150.183594 C 183.046875 149.882812 183.074219 149.585938 183.132812 149.289062 C 183.191406 148.992188 183.28125 148.707031 183.394531 148.425781 C 183.511719 148.148438 183.652344 147.882812 183.820312 147.632812 C 183.988281 147.382812 184.179688 147.148438 184.390625 146.9375 C 184.605469 146.722656 184.835938 146.53125 185.085938 146.367188 C 185.339844 146.199219 185.601562 146.054688 185.882812 145.941406 C 186.160156 145.824219 186.449219 145.738281 186.742188 145.679688 C 187.039062 145.621094 187.335938 145.589844 187.640625 145.589844 Z M 187.640625 145.589844 " fill-opacity="1" fill-rule="evenodd"/><path fill="#ffffff" d="M 187.640625 191.527344 L 233.578125 191.527344 C 233.878906 191.527344 234.175781 191.558594 234.472656 191.617188 C 234.769531 191.675781 235.054688 191.761719 235.335938 191.878906 C 235.613281 191.992188 235.878906 192.136719 236.128906 192.304688 C 236.378906 192.46875 236.613281 192.660156 236.824219 192.875 C 237.039062 193.085938 237.230469 193.320312 237.394531 193.570312 C 237.5625 193.820312 237.707031 194.085938 237.820312 194.363281 C 237.9375 194.644531 238.023438 194.929688 238.082031 195.226562 C 238.140625 195.523438 238.171875 195.820312 238.171875 196.121094 C 238.171875 196.425781 238.140625 196.722656 238.082031 197.019531 C 238.023438 197.316406 237.9375 197.601562 237.820312 197.878906 C 237.707031 198.160156 237.5625 198.425781 237.394531 198.675781 C 237.230469 198.925781 237.039062 199.15625 236.824219 199.371094 C 236.613281 199.585938 236.378906 199.773438 236.128906 199.941406 C 235.878906 200.109375 235.613281 200.25 235.335938 200.367188 C 235.054688 200.480469 234.769531 200.570312 234.472656 200.628906 C 234.175781 200.6875 233.878906 200.714844 233.578125 200.714844 L 187.640625 200.714844 C 187.335938 200.714844 187.039062 200.6875 186.742188 200.628906 C 186.449219 200.570312 186.160156 200.480469 185.882812 200.367188 C 185.601562 200.25 185.339844 200.109375 185.085938 199.941406 C 184.835938 199.773438 184.605469 199.585938 184.390625 199.371094 C 184.179688 199.15625 183.988281 198.925781 183.820312 198.675781 C 183.652344 198.425781 183.511719 198.160156 183.394531 197.878906 C 183.28125 197.601562 183.191406 197.316406 183.132812 197.019531 C 183.074219 196.722656 183.046875 196.425781 183.046875 196.121094 C 183.046875 195.820312 183.074219 195.523438 183.132812 195.226562 C 183.191406 194.929688 183.28125 194.644531 183.394531 194.363281 C 183.511719 194.085938 183.652344 193.820312 183.820312 193.570312 C 183.988281 193.320312 184.179688 193.085938 184.390625 192.875 C 184.605469 192.660156 184.835938 192.46875 185.085938 192.304688 C 185.339844 192.136719 185.601562 191.992188 185.882812 191.878906 C 186.160156 191.761719 186.449219 191.675781 186.742188 191.617188 C 187.039062 191.558594 187.335938 191.527344 187.640625 191.527344 Z M 187.640625 191.527344 " fill-opacity="1" fill-rule="evenodd"/><g clip-path="url(#0d819c4d7a)"><path fill="#000000" d="M 130.082031 217.28125 C 132.359375 217.28125 133.867188 218.789062 133.867188 221.066406 C 133.867188 223.34375 132.359375 224.851562 130.082031 224.851562 L 64.585938 224.851562 C 62.308594 224.851562 60.800781 223.34375 60.800781 221.066406 C 60.800781 218.789062 62.308594 217.28125 64.585938 217.28125 Z M 42.644531 185.503906 L 108.140625 185.503906 C 110.417969 185.503906 111.925781 187.011719 111.925781 189.285156 C 111.925781 191.4375 110.582031 192.902344 108.511719 193.058594 L 108.140625 193.070312 L 42.644531 193.070312 C 40.367188 193.070312 38.859375 191.5625 38.859375 189.285156 C 38.859375 187.136719 40.207031 185.671875 42.273438 185.515625 L 42.644531 185.503906 L 108.140625 185.503906 Z M 64.585938 153.722656 L 130.082031 153.722656 C 132.359375 153.722656 133.867188 155.230469 133.867188 157.507812 C 133.867188 159.65625 132.523438 161.121094 130.453125 161.277344 L 130.082031 161.292969 L 64.585938 161.292969 C 62.324219 161.292969 60.800781 159.769531 60.800781 157.507812 C 60.800781 155.355469 62.148438 153.894531 64.214844 153.738281 L 64.585938 153.722656 L 130.082031 153.722656 Z M 270.476562 147.890625 C 277.082031 160.78125 280.75 175.382812 280.75 190.792969 C 280.75 243.402344 237.96875 286.164062 185.339844 286.136719 C 159.980469 286.136719 136.128906 276.304688 117.953125 258.140625 C 116.445312 256.632812 116.445312 254.355469 117.953125 252.847656 C 119.460938 251.339844 121.738281 251.339844 123.246094 252.847656 C 139.898438 269.507812 161.855469 278.582031 185.324219 278.582031 C 233.78125 278.582031 273.144531 239.234375 273.144531 190.792969 C 273.144531 177.578125 270.179688 165.003906 264.863281 153.734375 Z M 258.871094 159.972656 C 262.957031 169.546875 265.222656 180.089844 265.222656 191.160156 C 265.222656 235.0625 229.644531 270.628906 185.726562 270.628906 C 169.460938 270.628906 153.933594 265.707031 140.683594 256.632812 C 138.792969 255.507812 138.40625 253.230469 139.546875 251.339844 C 140.683594 249.832031 142.960938 249.445312 145.222656 250.554688 C 156.949219 258.878906 170.96875 263.046875 185.726562 263.046875 C 225.472656 263.046875 257.652344 230.878906 257.652344 191.148438 C 257.652344 182.28125 256.050781 173.796875 253.121094 165.957031 Z M 257.882812 126.921875 C 261.253906 126.460938 264.546875 128.210938 266.035156 131.269531 C 267.53125 134.332031 266.886719 138.003906 264.445312 140.371094 C 236.601562 168.269531 216.476562 190.894531 188.304688 219.109375 C 185.421875 222.03125 180.777344 222.246094 177.636719 219.601562 L 143.503906 190.730469 C 141.894531 189.386719 140.890625 187.460938 140.714844 185.371094 C 140.53125 183.277344 141.1875 181.207031 142.542969 179.609375 C 143.894531 177.996094 145.832031 177.003906 147.914062 176.828125 C 150.007812 176.65625 152.078125 177.320312 153.679688 178.675781 L 182.230469 202.789062 C 207.316406 177.371094 227 155.636719 253.285156 129.300781 C 254.503906 128.019531 256.125 127.175781 257.878906 126.921875 Z M 185.726562 111.695312 C 205.78125 111.695312 224.097656 119.113281 238.082031 131.351562 L 232.851562 136.8125 C 220.234375 125.867188 203.757812 119.246094 185.726562 119.246094 C 170.582031 119.246094 155.808594 123.800781 143.699219 132.875 C 141.804688 134.015625 139.542969 133.628906 138.402344 132.121094 C 137.265625 130.613281 137.648438 127.96875 139.160156 126.832031 C 152.792969 116.984375 169.074219 111.695312 185.726562 111.695312 Z M 202.761719 72.359375 C 205.039062 72.359375 206.546875 73.867188 206.546875 76.144531 C 206.546875 78.292969 205.203125 79.757812 203.132812 79.914062 L 202.761719 79.929688 L 189.128906 79.929688 L 189.128906 95.820312 C 211.378906 96.558594 231.457031 104.925781 247.210938 118.425781 L 248.191406 119.277344 L 248.933594 120.019531 L 243.652344 125.539062 C 227.980469 111.765625 207.535156 103.371094 185.324219 103.371094 C 161.105469 103.371094 138.390625 113.21875 121.355469 131 C 119.847656 132.507812 117.570312 132.507812 116.0625 131 C 114.554688 129.492188 114.554688 127.214844 116.0625 125.707031 C 133.167969 107.507812 155.726562 97.332031 180.195312 95.890625 L 181.554688 95.820312 L 181.554688 79.929688 L 168.308594 79.929688 C 166.03125 79.929688 164.519531 78.421875 164.519531 76.144531 C 164.519531 73.996094 165.867188 72.53125 167.933594 72.375 L 168.308594 72.359375 Z M 202.761719 72.359375 " fill-opacity="1" fill-rule="evenodd"/></g></svg>